<svg width="44" height="31" viewBox="0 0 44 31" fill="none" xmlns="http://www.w3.org/2000/svg">
<path fill-rule="evenodd" clip-rule="evenodd" d="M2 1H41.5C42.0523 1 42.5 1.44771 42.5 2V29C42.5 29.5523 42.0523 30 41.5 30H2C1.44772 30 1 29.5523 1 29V2C1 1.44772 1.44772 1 2 1ZM0 2C0 0.89543 0.895431 0 2 0H41.5C42.6046 0 43.5 0.89543 43.5 2V29C43.5 30.1046 42.6046 31 41.5 31H2C0.89543 31 0 30.1046 0 29V2ZM30.5 8H13V11H30.5V8ZM13 14H30.5V17H13V14ZM30.5 20H13V23H30.5V20Z" fill="white" fill-opacity="0.549"/>
</svg>
